<svg width="58" height="53" viewBox="0 0 58 53" fill="none" xmlns="http://www.w3.org/2000/svg">
<g filter="url(#filter0_d_89_296)">
<path d="M14.4167 41.7548C12.4828 41.7548 10.6281 40.957 9.26068 39.537C7.89323 38.1169 7.125 36.1909 7.125 34.1827C7.125 32.1744 7.89323 30.2484 9.26068 28.8284C10.6281 27.4084 12.4828 26.6106 14.4167 26.6106C16.3505 26.6106 18.2052 27.4084 19.5727 28.8284C20.9401 30.2484 21.7083 32.1744 21.7083 34.1827C21.7083 36.1909 20.9401 38.1169 19.5727 39.537C18.2052 40.957 16.3505 41.7548 14.4167 41.7548ZM14.4167 23.3654C11.654 23.3654 9.00447 24.5051 7.05097 26.5337C5.09747 28.5623 4 31.3138 4 34.1827C4 37.0516 5.09747 39.803 7.05097 41.8317C9.00447 43.8603 11.654 45 14.4167 45C17.1793 45 19.8289 43.8603 21.7824 41.8317C23.7359 39.803 24.8333 37.0516 24.8333 34.1827C24.8333 31.3138 23.7359 28.5623 21.7824 26.5337C19.8289 24.5051 17.1793 23.3654 14.4167 23.3654ZM34.8333 19.0385H43.5833V15.1442H36.9167L32.875 8.06971C32.2708 6.98798 31.0833 6.27404 29.8333 6.27404C28.8542 6.27404 27.9583 6.6851 27.3333 7.35577L19.625 15.3389C18.9792 16.0096 18.5833 16.875 18.5833 17.9567C18.5833 19.3197 19.2708 20.4663 20.3542 21.137L27.3333 25.5288V36.3462H31.0833V22.2837L26.3958 18.7139L31.2292 13.6298L34.8333 19.0385ZM43.5833 41.7548C41.6495 41.7548 39.7948 40.957 38.4273 39.537C37.0599 38.1169 36.2917 36.1909 36.2917 34.1827C36.2917 32.1744 37.0599 30.2484 38.4273 28.8284C39.7948 27.4084 41.6495 26.6106 43.5833 26.6106C45.5172 26.6106 47.3719 27.4084 48.7393 28.8284C50.1068 30.2484 50.875 32.1744 50.875 34.1827C50.875 36.1909 50.1068 38.1169 48.7393 39.537C47.3719 40.957 45.5172 41.7548 43.5833 41.7548ZM43.5833 23.3654C40.8207 23.3654 38.1711 24.5051 36.2176 26.5337C34.2641 28.5623 33.1667 31.3138 33.1667 34.1827C33.1667 37.0516 34.2641 39.803 36.2176 41.8317C38.1711 43.8603 40.8207 45 43.5833 45C44.9513 45 46.3058 44.7202 47.5696 44.1766C48.8334 43.633 49.9818 42.8362 50.949 41.8317C51.9163 40.8272 52.6836 39.6347 53.2071 38.3223C53.7306 37.0099 54 35.6032 54 34.1827C54 32.7621 53.7306 31.3555 53.2071 30.0431C52.6836 28.7307 51.9163 27.5382 50.949 26.5337C49.9818 25.5292 48.8334 24.7324 47.5696 24.1888C46.3058 23.6452 44.9513 23.3654 43.5833 23.3654ZM37.3333 7.78846C39.4167 7.78846 41.0833 6.05769 41.0833 3.89423C41.0833 1.73077 39.4167 0 37.3333 0C35.25 0 33.5833 1.73077 33.5833 3.89423C33.5833 6.05769 35.25 7.78846 37.3333 7.78846Z" fill="white"/>
</g>
<defs>
<filter id="filter0_d_89_296" x="0" y="0" width="58" height="53" filterUnits="userSpaceOnUse" color-interpolation-filters="sRGB">
<feFlood flood-opacity="0" result="BackgroundImageFix"/>
<feColorMatrix in="SourceAlpha" type="matrix" values="0 0 0 0 0 0 0 0 0 0 0 0 0 0 0 0 0 0 127 0" result="hardAlpha"/>
<feOffset dy="4"/>
<feGaussianBlur stdDeviation="2"/>
<feComposite in2="hardAlpha" operator="out"/>
<feColorMatrix type="matrix" values="0 0 0 0 0 0 0 0 0 0 0 0 0 0 0 0 0 0 0.25 0"/>
<feBlend mode="normal" in2="BackgroundImageFix" result="effect1_dropShadow_89_296"/>
<feBlend mode="normal" in="SourceGraphic" in2="effect1_dropShadow_89_296" result="shape"/>
</filter>
</defs>
</svg>
